<svg width="77" height="25" viewBox="0 0 77 25" fill="none" xmlns="http://www.w3.org/2000/svg">
<path d="M37.7211 0.873413H32.7751C31.8589 0.873413 31.1162 1.6161 31.1162 2.53226V23.2526C31.1162 24.1688 31.8589 24.9115 32.7751 24.9115H37.7211C38.6372 24.9115 39.3799 24.1688 39.3799 23.2526V2.53226C39.3799 1.6161 38.6372 0.873413 37.7211 0.873413Z" fill="#000401"/>
<path d="M74.7855 0.873413H69.8395C68.9234 0.873413 68.1807 1.6161 68.1807 2.53226V23.2526C68.1807 24.1688 68.9234 24.9115 69.8395 24.9115H74.7855C75.7017 24.9115 76.4444 24.1688 76.4444 23.2526V2.53226C76.4444 1.6161 75.7017 0.873413 74.7855 0.873413Z" fill="#000401"/>
<path d="M63.1834 17.9911C64.0892 17.9911 64.8219 18.7239 64.8219 19.6296V23.273C64.8219 24.1787 64.0892 24.9115 63.1834 24.9115H44.4577C43.5418 24.9115 42.7989 24.1686 42.7989 23.2526C42.7989 22.927 42.9006 22.6013 43.0838 22.3265L52.8945 7.79377H44.3153C43.4095 7.79377 42.6768 7.06103 42.6768 6.15527V2.51191C42.6768 1.60616 43.4095 0.873413 44.3153 0.873413H63.2139C64.1299 0.873413 64.8728 1.61633 64.8728 2.53226C64.8728 2.8681 64.7812 3.18359 64.598 3.45837L54.8077 17.9911H63.1834Z" fill="#000401"/>
<path d="M12.2583 24.9116C18.8962 24.9116 24.2773 19.5305 24.2773 12.8926C24.2773 6.25464 18.8962 0.873535 12.2583 0.873535C5.62036 0.873535 0.239258 6.25464 0.239258 12.8926C0.239258 19.5305 5.62036 24.9116 12.2583 24.9116Z" fill="url(#paint0_linear_188_1782)"/>
<path d="M16.0335 23.3544C19.7206 23.3544 22.7096 20.3654 22.7096 16.6783C22.7096 12.9912 19.7206 10.0022 16.0335 10.0022C12.3464 10.0022 9.35742 12.9912 9.35742 16.6783C9.35742 20.3654 12.3464 23.3544 16.0335 23.3544Z" fill="#000401"/>
<defs>
<linearGradient id="paint0_linear_188_1782" x1="5.58291" y1="19.5725" x2="18.8456" y2="6.30989" gradientUnits="userSpaceOnUse">
<stop stop-color="#00F1FF"/>
<stop offset="1" stop-color="#FF00D7"/>
</linearGradient>
</defs>
</svg>
